<mxfile host="app.diagrams.net" modified="2022-11-27T12:33:49.558Z" agent="5.0 (Windows NT 10.0; Win64; x64) AppleWebKit/537.36 (KHTML, like Gecko) Chrome/107.0.0.0 Safari/537.36" version="20.6.0" etag="eFJ-qhovXdcyIl_FFWSs" type="github">
  <diagram id="yWNZY2J24FkwbNy4CQpn" name="Page-1">
    <mxGraphModel dx="1609" dy="436" grid="1" gridSize="10" guides="1" tooltips="1" connect="1" arrows="1" fold="1" page="1" pageScale="1" pageWidth="827" pageHeight="1169" math="0" shadow="0">
      <root>
        <mxCell id="0" />
        <mxCell id="1" parent="0" />
        <mxCell id="Zrs7Km_TVFCokHQbHUnR-1" value="1) Preheat your waffle iron. In a large bowl, mix together&lt;br&gt;the flour, salt, baking powder, and sugar" style="rounded=1;whiteSpace=wrap;html=1;" vertex="1" parent="1">
          <mxGeometry x="100" y="120" width="320" height="60" as="geometry" />
        </mxCell>
        <mxCell id="Zrs7Km_TVFCokHQbHUnR-2" value="2) In another bowl, beat the eggs" style="rounded=1;whiteSpace=wrap;html=1;" vertex="1" parent="1">
          <mxGeometry x="100" y="200" width="320" height="60" as="geometry" />
        </mxCell>
        <mxCell id="Zrs7Km_TVFCokHQbHUnR-4" value="3) Pour the liquid into the flour mixture and beat until&lt;br&gt;blended." style="rounded=1;whiteSpace=wrap;html=1;" vertex="1" parent="1">
          <mxGeometry x="100" y="280" width="320" height="60" as="geometry" />
        </mxCell>
        <mxCell id="Zrs7Km_TVFCokHQbHUnR-6" value="4) Ladle the batter into the waffle iron and cook&lt;br/&gt;until crisp and golden." style="rounded=1;whiteSpace=wrap;html=1;" vertex="1" parent="1">
          <mxGeometry x="100" y="360" width="320" height="60" as="geometry" />
        </mxCell>
        <mxCell id="Zrs7Km_TVFCokHQbHUnR-7" value="" style="rounded=0;whiteSpace=wrap;html=1;" vertex="1" parent="1">
          <mxGeometry x="-170" y="120" width="230" height="150" as="geometry" />
        </mxCell>
      </root>
    </mxGraphModel>
  </diagram>
</mxfile>
